<?xml version="1.0" standalone="no"?>
<!DOCTYPE svg PUBLIC "-//W3C//DTD SVG 20010904//EN"
 "http://www.w3.org/TR/2001/REC-SVG-20010904/DTD/svg10.dtd">
<svg version="1.0" xmlns="http://www.w3.org/2000/svg"
 width="1030.000000pt" height="1280.000000pt" viewBox="0 0 1030.000000 1280.000000"
 preserveAspectRatio="xMidYMid meet">
<metadata>
Created by potrace 1.15, written by Peter Selinger 2001-2017
</metadata>
<g transform="translate(0.000000,1280.000000) scale(0.100000,-0.100000)"
fill="#607d8b" stroke="none">
<path d="M10105 12786 c-16 -7 -1904 -1182 -4195 -2611 -5358 -3343 -5377
-3354 -5625 -3508 -116 -71 -222 -142 -238 -156 -58 -54 -58 -148 0 -202 16
-14 559 -358 1208 -764 649 -406 2040 -1277 3090 -1935 3159 -1979 5277 -3305
5519 -3457 126 -79 240 -146 253 -149 116 -29 217 110 150 207 -35 50 31 -16
-3185 3202 l-2986 2988 3097 3097 c2143 2144 3098 3105 3103 3125 15 65 -21
138 -82 163 -41 17 -70 17 -109 0z"/>
</g>
</svg>
